# Blender v2.77 (sub 0) OBJ File: 'pyramid.blend'
# www.blender.org
mtllib pyramid.mtl
o Plane
v 1.000000 0.000000 1.000000
v -1.000000 0.000000 1.000000
v -1.000000 0.000000 -1.000000
v 1.000000 0.000000 -1.000000
v 0.000000 1.000000 0.000000
vt 0.2503 0.0002
vt 0.5004 0.3336
vt 0.2503 0.6664
vt 0.0002 0.3336
vt 0.5004 0.9998
vt 0.1467 0.9998
vt 0.3236 0.6669
vt 0.5008 0.3336
vt 0.8545 0.3336
vt 0.6777 0.6664
vt 0.5008 0.0002
vt 0.8545 0.0002
vt 0.6777 0.3331
vt 0.8545 0.9998
vt 0.5008 0.9998
vt 0.6777 0.6669
vn 0.0000 -1.0000 0.0000
vn 0.0000 0.7071 -0.7071
vn 0.0000 0.7071 0.7071
vn 0.7071 0.7071 0.0000
vn -0.7071 0.7071 0.0000
usemtl pyramid.001
s off
f 2/1/1 3/2/1 4/3/1 1/4/1
f 4/5/2 3/6/2 5/7/2
f 2/8/3 1/9/3 5/10/3
f 1/11/4 4/12/4 5/13/4
f 3/14/5 2/15/5 5/16/5
l 1 3
